<svg t="1695902884783" class="icon" viewBox="0 0 1024 1024" version="1.1" xmlns="http://www.w3.org/2000/svg" p-id="4185" width="32" height="32"><path d="M324.69 692.69l-128 128c-6.25 6.25-6.25 16.38 0 22.63 3.12 3.12 7.22 4.69 11.31 4.69s8.19-1.56 11.31-4.69l128-128c6.25-6.25 6.25-16.38 0-22.63-6.24-6.25-16.38-6.25-22.62 0zM720 336c4.09 0 8.19-1.56 11.31-4.69l128-128c6.25-6.25 6.25-16.38 0-22.63s-16.38-6.25-22.63 0l-128 128c-6.25 6.25-6.25 16.38 0 22.63 3.13 3.13 7.23 4.69 11.32 4.69zM731.31 692.69c-6.25-6.25-16.38-6.25-22.63 0s-6.25 16.38 0 22.63l128 128c3.12 3.12 7.22 4.69 11.31 4.69s8.19-1.56 11.31-4.69c6.25-6.25 6.25-16.38 0-22.63l-127.99-128zM324.69 331.31c3.12 3.12 7.22 4.69 11.31 4.69s8.19-1.56 11.31-4.69c6.25-6.25 6.25-16.38 0-22.63l-128-128c-6.25-6.25-16.38-6.25-22.63 0s-6.25 16.38 0 22.63l128.01 128zM791.69 489.23L620 432l-57.23-171.69c-7.29-21.88-38.24-21.88-45.54 0L460 432l-171.69 57.23c-21.88 7.29-21.88 38.24 0 45.54L460 592l57.23 171.69c7.29 21.88 38.24 21.88 45.54 0L620 592l171.69-57.23c21.89-7.3 21.89-38.24 0-45.54z" fill="#009986" opacity=".3" p-id="4186"></path><path d="M780.11 512c0-17.51-10.74-32.41-27.35-37.95l-164.1-54.7-54.7-164.11c-5.54-16.61-20.43-27.35-37.95-27.35s-32.41 10.74-37.95 27.35l-54.7 164.11-164.1 54.7c-16.62 5.54-27.35 20.43-27.35 37.95s10.74 32.41 27.35 37.95l164.1 54.7 54.7 164.1c5.54 16.62 20.43 27.35 37.95 27.35s32.41-10.74 37.95-27.35l54.7-164.1 164.1-54.7c16.61-5.54 27.35-20.44 27.35-37.95z m-37.48 7.59l-171.69 57.23a15.98 15.98 0 0 0-10.12 10.12l-57.23 171.69c-1.65 4.94-5.86 5.47-7.59 5.47s-5.94-0.53-7.59-5.47l-57.23-171.69a15.98 15.98 0 0 0-10.12-10.12l-171.69-57.23c-4.94-1.65-5.47-5.86-5.47-7.59s0.53-5.94 5.47-7.59l171.69-57.23a15.98 15.98 0 0 0 10.12-10.12l57.23-171.69c1.65-4.94 5.86-5.47 7.59-5.47s5.94 0.53 7.59 5.47l57.23 171.69a15.98 15.98 0 0 0 10.12 10.12l171.69 57.23c4.94 1.65 5.47 5.86 5.47 7.59s-0.53 5.94-5.47 7.59zM292.69 692.69l-128 128c-6.25 6.25-6.25 16.38 0 22.63 3.12 3.12 7.22 4.69 11.31 4.69s8.19-1.56 11.31-4.69l128-128c6.25-6.25 6.25-16.38 0-22.63-6.24-6.25-16.38-6.25-22.62 0zM688 336c4.09 0 8.19-1.56 11.31-4.69l128-128c6.25-6.25 6.25-16.38 0-22.63s-16.38-6.25-22.63 0l-128 128c-6.25 6.25-6.25 16.38 0 22.63 3.13 3.13 7.23 4.69 11.32 4.69zM699.31 692.69c-6.25-6.25-16.38-6.25-22.63 0s-6.25 16.38 0 22.63l128 128c3.12 3.12 7.22 4.69 11.31 4.69s8.19-1.56 11.31-4.69c6.25-6.25 6.25-16.38 0-22.63l-127.99-128zM292.69 331.31c3.12 3.12 7.22 4.69 11.31 4.69s8.19-1.56 11.31-4.69c6.25-6.25 6.25-16.38 0-22.63l-128-128c-6.25-6.25-16.38-6.25-22.63 0s-6.25 16.38 0 22.63l128.01 128z" fill="#009986" p-id="4187"></path></svg>